<svg xmlns="http://www.w3.org/2000/svg" height="24" viewBox="0 -960 960 960" width="24"><path fill="#c5c5c5" d="M160-200q-33 0-56.5-23.5T80-280v-400q0-33 23.5-56.5T160-760h640q33 0 56.5 23.5T880-680v400q0 33-23.5 56.5T800-200H160Zm0-80h640v-400H160v400Zm80-80h480v-80H240v80ZM140-440h120v-80H140v80Zm140 0h120v-80H280v80Zm140 0h120v-80H420v80Zm140 0h120v-80H560v80Zm140 0h120v-80H700v80ZM140-560h120v-80H140v80Zm140 0h120v-80H280v80Zm140 0h120v-80H420v80Zm140 0h120v-80H560v80Zm140 0h120v-80H700v80ZM160-280v-400 400Z"/></svg>